<?xml version="1.0" encoding="utf-8"?>
<!-- Generator: Adobe Illustrator 21.0.0, SVG Export Plug-In . SVG Version: 6.00 Build 0)  -->
<svg version="1.1" id="Livello_1" xmlns="http://www.w3.org/2000/svg" xmlns:xlink="http://www.w3.org/1999/xlink" x="0px" y="0px"
	 viewBox="0 0 326.4 230" style="enable-background:new 0 0 326.4 230;" xml:space="preserve">
<style type="text/css">
	.st0{fill:#78352C;}
</style>
<title>logo_color</title>
<path class="st0" d="M158.1,94.5c0.2,2.5,0.3,4.3,0.4,6.1c0.1,0.4,0.2,0.8,0.3,1.2c0.4,1.5,0.8,3.1,1.2,4.6c0.2,0.7-0.2,1.4-0.9,1.6
	c-1.6,0.7-3.4,0.7-5-0.1c-0.5-0.2-0.8-0.8-0.6-1.3c0.3-1.4,0.4-2.8,0.5-4.3c0.1-1.2,0.3-2.4,0.4-3.6c0.2-1.9-0.1-3.9-0.9-5.6
	c-0.1-0.4-0.5-0.6-0.9-0.6c-2,0-2,0-2,2c-0.1,2.4,0.6,4.8,1.9,6.9c0.3,0.6,0.5,1.4,0.5,2.1c0,1-0.1,1.9-0.2,2.9
	c0,0.1-0.1,0.3-0.2,0.4c-0.7-0.2-0.9,0.5-1.3,0.8c-0.4,0.3-0.9,0.5-1.5,0.6c-1.1,0-2.2,0-3.4-0.1c-0.8,0-1.1-0.5-0.8-1.2
	c0.3-0.7,0.6-1.3,1.1-2c0.6-0.7,0.8-1.6,0.7-2.5c-0.1-0.2-0.2-0.4-0.3-0.7c-0.3,0.2-0.8,0.4-0.9,0.7c-0.1,0.6-0.7,1.1-1.4,1
	c-0.2,0-0.3-0.1-0.4-0.2c-0.2-0.1-0.2-0.5-0.3-0.7c-0.1-0.2-0.4-0.5-0.5-0.5c-1.1,0.3-2.3,0.1-3.2-0.7c-0.5-0.3-0.6-0.1-0.6,0.4
	c-0.1,1.3-0.2,2.6-0.4,3.9c-0.3,0.9-1.2,1.3-2.1,1c-0.1,0-0.1-0.1-0.2-0.1c-0.1-0.1-0.2-0.3-0.1-0.5c0.1-1.1,0.3-2.1,0.5-3.2
	c0-0.2,0-0.5-0.1-0.7c-0.2,0-0.4,0.1-0.6,0.2c-1,0.7-4.3,0.9-5.3,0.3c-0.8-0.7-1.2-1.8-0.8-2.8c0.2-0.7,0.4-1.4,0.5-2.1
	c0.1-0.7,0.1-1.4,0.2-2.1c0.2-0.9,0.3-1.9,0.4-2.9c0-1.9-0.2-3.9-0.3-5.8c-0.2-1.9,0-3.9,0.5-5.8c0-0.3,0-0.6-0.2-0.9
	c-0.4-0.6-0.8-1.2-1.2-1.9c-0.3-0.6-0.6-0.6-1.1-0.3c-1.5,0.9-3.1,1.7-4.5,2.7c-2,1.4-4.4,2.1-6.8,2.3c-1,0.1-1.9,0.1-2.9,0.2
	c-0.2,0-0.5,0.3-0.5,0.4c0.7,2.9,0.4,5.9,0.1,8.9c-0.2,2.3,0.6,4.4,1,6.6c0.3,1.6,0.7,3.2,0.9,4.8c0.2,0.9-0.3,1.8-1.2,2
	c-0.1,0-0.3,0-0.4,0c-0.8,0.1-1.7,0-2.5-0.2c-1.2-0.4-1.5-1.2-1.2-2.5c0.8-3.3,0.5-6.8-0.7-10.1c-0.5-1.3-0.9-2.5-1.3-3.8
	c0-0.1-0.1-0.1-0.1-0.2c0,0.1,0,0.2,0,0.3c0.2,1.6,0.3,3.3,0.5,4.9c0.2,1.8,0.4,3.5,0.7,5.3c0.1,0.5-0.2,1-0.7,1.1
	c-0.1,0-0.1,0-0.2,0c-3.1,0.5-6.3,1.1-9.5,0.4c-0.5-0.1-0.7,0-0.6,0.5c0.1,0.7-0.2,0.9-0.9,0.9c-0.6,0-1.1,0-1.7,0
	c-0.2,0-0.6,0.2-0.6,0.3c0,0.2,0.1,0.6,0.3,0.7c1.8,0.5,3.1,2.2,5.2,2.2c1.2-0.1,2.5,0.4,3.4,1.3c0.4,0.4,0.4,0.9-0.1,1.2
	c-0.6,0.3-1.2,0.6-1.9,0.6c-1.3,0.1-2.6,0-3.9,0c-0.1,0-0.3,0-0.4,0c0.1,0.1,0.1,0.3,0.2,0.4c0.3,1-0.2,2-1.2,2.4
	c-0.4,0.2-0.9,0.2-1.3,0.2c-3-0.1-6-0.2-9-0.4c-1.3-0.1-2.6-0.1-3.9-0.2c-1.1-0.1-1.5-0.9-1.1-1.9c0.1-0.4,0.1-0.8,0.1-1.3
	c0-0.2-0.1-0.4,0-0.6c0.6-1.3,1.1-2.5,1.7-3.8c0.4-0.7,0.2-1.2-0.7-1.4c-1.2-0.2-2.4-0.3-3.6-0.5c-1-0.1-1.1-0.3-0.7-1.2
	c0.2-0.6-0.1-0.6-0.5-0.6c-1.1,0-2.2,0-3.3,0c-1.2-0.1-1.6-0.4-1.1-1.6c1-2.7,0.8-5.4,1-8.2c0.3-5.4,0.6-10.8,1-16.2
	c0.2-3.4,0.4-6.7,0.8-10.1c0.3-2.4,0.9-4.7,1.2-7.1c0.4-2.9,0.6-5.8,0.8-8.7c0-0.8-0.2-1.5-0.4-2.2c0-0.1-0.1-0.2-0.1-0.2
	c-1.3,0.1-1.2-1.4-2-1.9c-0.3-0.2-0.3-0.6-0.4-1c-0.1-1.2-0.4-2.4-0.6-3.5c-0.7-2-1.5-3.9-2.3-5.9c-0.7-1.5-1.3-3-1.9-4.6
	c-0.1-0.8,0-1.7,0.5-2.4c1.1-2,2.3-4,3.5-6c0.2-0.5,0.6-1,0.9-1.4c0.8-0.8,1.2-1.9,1.2-3c0.2-1.7,0.7-2.1,2.3-2.1
	c1.6,0,1.8-0.3,1.6-1.9C81.5,11,81.6,9.7,82,8.6c0.1-0.3-0.2-1-0.5-1.4c-0.4-0.6-0.7-1.1,0.2-1.5c0.1-0.1,0.2-0.2,0.2-0.3
	c0.4-1.5,1.1-2.8,2.1-3.9c0.8-1.1,1.8-1.1,2.8-1.4c0.6-0.2,1.5,0.2,2.3,0.4c0.4,0.1,0.7,0.3,1.1,0.4c2.6,0.7,4.2,3.3,3.6,5.9
	C93.6,7,93.5,7.3,94,7.4c0.2,0.1,0.6,0.6,0.5,0.8c-0.4,1.2-0.5,2.5-1.9,3c-0.2,0.1-0.3,0.7-0.5,0.9c-0.8,0.9-0.3,1.8-0.3,2.7
	c0,0.4,0.5,0.8,0.7,1.2c0.2,0.4,0.3,0.9,0.2,1.3c-0.2,0.6,0,0.9,0.6,0.9c1.7-0.1,3.3,0.5,4.5,1.6c0.3,0.2,0.5,0.4,0.8,0.5
	c0.7,0.2,1.2,0.9,1,1.7c0,0,0,0.1,0,0.1c-0.2,0.4,0,0.9,0.5,1.1c0,0,0.1,0,0.1,0c0.2,0.1,0.4,0.1,0.6,0.2c1.8,1.3,3.4,0.9,5.1-0.2
	c0.9-0.6,1.9-1.1,2.8-1.7c0.4-0.2,0.9-0.4,1.3-0.7c0.2-0.1,0.3-0.5,0.2-0.6c-0.2-0.2-0.4-0.4-0.7-0.4c-2.1-0.2-2.7-1.1-1.9-3.1
	c0.5-1.1,0.6-2.3,0.3-3.5c-0.4-1.8,0.9-3,2-4.2c0.3-0.4,0.8-0.6,1.1-1c1.7-2.1,3.9-2.1,6.3-1.6c0.6,0.3,1.2,0.6,1.7,1.1
	c0.5,0.3,1,0.7,1.3,1.2c0.4,0.7,0.7,1.5,0.8,2.3c0.1,1.2,0.1,2.5-0.2,3.7c-0.3,1.1-0.3,2.2-0.6,3.3c-0.4,1.2-0.9,2.5-1.5,3.6
	c-0.2,0.4-0.2,0.6,0.3,0.8c1,0.4,1.9,1,2.8,1.6c1.2,0.9,2,2.3,2.2,3.8c0,0.1,0.1,0.3,0.2,0.4c0.1-0.1,0.3-0.2,0.3-0.3
	c0.4-0.7,0.7-1.5,1-2.2c0.3-1.1,1.2-1.9,2.4-2c1.6-0.2,3.2-0.3,4.6-1.3c0.8-0.6,0.7-0.9-0.1-1.3c-0.2-0.2-0.4-0.4-0.5-0.7
	c-0.2-0.5-0.3-0.9-1-0.9c-0.5,0.1-0.8-0.6-0.6-1.2c0.1-0.1,0.1-0.4,0-0.5c-0.6-0.7-0.6-1.7,0-2.4c0,0,0,0,0,0
	c0.5-0.4,0.7-1.1,0.5-1.7c-0.4-1.3,0.3-2.7,1.5-3.2c1.4-0.7,2.8-1.6,4.5-0.9c0.7,0.1,1.5,0.2,2.2,0.2c0.8,0,1.4,0.6,1.6,1.4
	c0.1,0.2,0.2,0.5,0.4,0.6c1.7,1.4,1.3,3.3,1.1,5.1c-0.3,2.3-1.5,4.2-2.4,6.2c0,0.2,0,0.5,0.2,0.6c0.5,0.3,1.1,0.4,1.7,0.6
	c1.4,0.6,2.8,1.1,4.1,1.7c0.5,0.3,0.8,0.7,1,1.3c0.4,1.4,0.7,2.8,0.9,4.1c0.1,0.5,0.2,0.5,0.5,0.2c0.7-0.5,1.4-1,2.2-1.4
	c0.2-0.2,0.5-0.3,0.8-0.3c1.7,0,3.3,0.5,4.7,1.4c1.3,1,1.2,2.3,1,3.7c0,0.4,0,0.8,0,1.2c0.1,0.7,0.2,1.4,0.3,2
	c0,0.7-0.3,1.4,0.3,2.2c0.1,0.2-0.1,0.7-0.2,1c-0.2,0.4-0.4,0.9-0.5,1.4c0,0.3,0.2,0.6,0.5,0.8c1.3,0.5,2.5,1,3.8,1.4
	c1,0.3,1.9,0.7,2.8,1.2c0.6,0.5,0.9,1.3,1.1,2c0.2,0.8,0.2,1.5,0.1,2.3c-0.1,1.1,0.3,2.3,1,3.1c0.8,0.9,1.1,2.2,0.8,3.4
	c-0.3,1.3-0.3,2.7,0,4c0.1,1.3,0.2,2.5,0.2,3.8c0,0.5,0.1,1,0.3,1.5c0.4,1.3-0.4,2.6-1.6,2.9c0,0,0,0,0,0c-1,0.3-1.6,1.4-1.4,2.4
	c0.2,1.5,0,2.7-1.4,3.4c-0.2,0.2-0.3,0.4-0.3,0.6c-0.2,5,0.1,10,0.8,14.9c0.7,4.7,1.5,9.3,2.2,14c0,0.2,0,0.4-0.2,0.6
	c-0.7,0.5-1.6,0.3-2.1-0.3c-0.1-0.2-0.2-0.4-0.3-0.6c-0.5-4.3-1.1-8.6-1.6-13c0-0.2-0.3-0.4-0.5-0.6c-0.1,0.2-0.3,0.5-0.3,0.7
	c0.3,3.5,0.6,7,1.1,10.5c0.1,0.8-0.3,0.9-0.9,0.9c-0.6,0.1-1,0.1-1.1-0.7c-0.3-4.1-0.7-8.1-1.1-12.2c0-0.2-0.1-0.4-0.1-0.5
	c-0.1,0.1-0.2,0.3-0.2,0.5C158.6,91.9,158.3,93.5,158.1,94.5z M122.9,48.4l-0.1,0c0,1,0.1,2,0.1,3c0,0.6,0.3,1.1,0.9,1.2
	c0.8,0.3,1.1,0.9,1.3,1.6c0.4,0.8,0.8,1.6,1.3,2.3c0.1,0.1,0.2,0.1,0.3,0.2c0-0.1,0-0.2,0-0.3c-0.3-2.8,0.2-5.6,1.3-8.1
	c0.3-0.5,0.4-1,0.5-1.6c0-0.4-0.1-0.7-0.4-0.9c-0.7-0.3-0.6-0.8-0.5-1.4c0.1-0.4,0-0.8-0.2-1.1c-0.9-1-1.9-1.8-2.9-2.8
	c-0.1-0.1-0.2-0.2-0.2-0.2c0,0.1-0.1,0.2-0.1,0.3c-0.1,1.4-0.6,2.8-1.5,3.9c-0.1,0.3-0.2,0.5-0.2,0.8
	C122.7,46.5,122.9,47.5,122.9,48.4z M144.3,95.1l-0.1,0c0-1,0-2,0-3.1c0-0.2-0.1-0.5-0.3-0.6c-0.1-0.1-0.4,0.1-0.6,0.2
	c-0.3,0.1-0.5,0.2-0.8,0.3c-0.6,0.1-1.6,0.9-1.6,1.5c-0.1,1.2-0.1,2.4,1.2,3.2c0.3,0.2,0.5,0.6,0.7,0.9c0.3,0.3,0.6,0.7,0.9,1
	c0.3,0.3,0.6,0.2,0.6-0.3C144.3,97.1,144.3,96.1,144.3,95.1L144.3,95.1z M135.5,95.2l-0.1,0c0.1,0.4,0.1,0.8,0.2,1.2
	c0,0.1,0.1,0.3,0.2,0.4c0.1-0.1,0.2-0.2,0.3-0.3c0.3-0.6,0.5-1.2,0.6-1.8c0.1-1.9,0.1-3.7,0.2-5.6c0-0.2,0-0.3-0.1-0.5
	c-0.1-0.1-0.2-0.2-0.3-0.3c-0.1,0.1-0.2,0.2-0.2,0.3c-0.8,1.6-1.1,3.3-1,5C135.2,94.1,135.3,94.6,135.5,95.2L135.5,95.2z
	 M151.7,91.5c0.3,0,0.5,0,0.7,0c0.4,0,0.5-0.1,0.4-0.5c-0.3-0.8-0.4-1.6-0.7-2.4c-0.2-0.7-0.9-0.5-1.3-0.4c-0.5,0.1-0.4,0.5-0.3,0.9
	c0.2,0.4,0.2,0.9,0.2,1.4C150.5,91.5,150.9,91.7,151.7,91.5L151.7,91.5z M144.6,45.1c0.1,0,0.3-0.1,0.4-0.1c0.9-0.4,1.8-0.7,2.6-1.2
	c0.1-0.2,0.1-0.4,0-0.6c-0.6-0.6-1.3-1.2-1.9-1.7c0,0-0.2,0.1-0.2,0.2c0.1,1-0.3,2.1-1,2.8c-0.1,0.1-0.1,0.3-0.1,0.5
	C144.4,45,144.6,45,144.6,45.1L144.6,45.1z M146.1,97.7c0.1,0.9-0.3,1.9,0.8,2.5c0.1,0.1,0.2,0.1,0.3,0.2c0-0.1,0.1-0.3,0.1-0.4
	c-0.2-1.1-0.5-2.2-0.7-3.3c-0.1-0.3-0.2-0.5-0.4-0.8c0,0.3-0.1,0.6-0.1,0.8C146.1,97,146.1,97.3,146.1,97.7L146.1,97.7z"/>
<path class="st0" d="M205.2,33.3c0.4,0,0.7,0,1.1,0c0.8,0,1.3,0.2,1.3,1.1c0,0.2,0.2,0.4,0.3,0.7c0.4,1.1,0.9,2.1,1.3,3.2
	c0,0.2,0.1,0.4,0.2,0.6c1.7,2.8,2.8,5.9,3.1,9.2c0.2,1.5,0.6,3,0.7,4.4c-0.1,0.8-0.3,1.5-0.7,2.2c-0.3,0.6-0.5,1.2-0.7,1.9
	c-0.1,1-0.5,2-1.2,2.8c-0.4,0.5-0.6,1-0.9,1.6c-0.3,0.8-0.1,1.6,0.5,2.2c0.7,0.9,1.2,1.9,1.7,3c1.6,3.9,2.4,8,2.4,12.2
	c0,2.6,0.3,5.2,0.3,7.8c0.1,2.5-0.7,4.9-2.2,6.8c-0.6,0.8-0.8,1.7-0.7,2.7c0.2,2.1,0.9,4.1,2,5.9c1.2,1.9,0.8,3.7-0.3,5.5
	c-0.2,0.3-0.6,0.5-1,0.6c-2.4,0.9-4.8,1.7-7.2,2.4c-2.6,0.6-5.3,0.9-8,1.1c-1.5,0.1-2.8-1-2.9-2.5c-0.1-0.5-0.3-0.7-0.8-0.7
	c-2.9,0.1-5.8,0.1-8.7,0.3c-2.1,0.2-4.3,0.7-6.4,0.9c-1.9,0.2-3.7,0.2-5.6,0.1c-1.4-0.1-1.9-1-1.8-2.4c0.2-3.5,0.3-7,0.6-10.4
	c0.3-4.5,0.6-8.9,1-13.4c0.2-2.6,0.4-5.1-0.4-7.6c-0.3-1.1,0-2.2,0.7-3.1c0.6-0.9,1.2-1.7,1.8-2.6c0.2-0.3,0.4-0.7,0.3-0.9
	c-0.2-0.3-0.5-0.5-0.9-0.6c-0.5,0-1-0.1-1.6-0.1c-0.6-0.1-0.8-0.4-0.4-0.9c2.3-3.4,3.7-7.3,4.1-11.3c0.5-3.4,2-6.4,3.5-9.5
	c0.5-0.9,1-1.9,1.4-2.9c0.3-0.9,0.4-1.9,0.6-2.8c0.1-0.4,0.4-0.8,0.7-1c1-0.7,2.1-1.2,3.1-1.9c0.1-0.1,0.1-0.3,0.1-0.4
	c0-1.2-0.1-2.4-0.1-3.7c0-0.3,0.2-0.6,0.4-0.9c0.6-0.4,1.3-0.7,1.9-1.1c0.3-0.2,0.5-0.5,0.5-0.9c-0.1-0.9-0.3-1.7-0.5-2.5
	c0,0,0-0.1-0.1-0.1c-1-0.8-0.7-1.7-0.3-2.7c0.2-0.6,0.2-1.2,0.1-1.8c-0.6-4.1,3.5-5.9,6.3-5.2c2.4,0.6,4.5,1.6,5.1,4.3
	c0.3,1.2,0.5,2.5,0.6,3.8c0,0.5-0.2,1-0.5,1.4c-0.3,0.6-0.3,0.9,0.4,1.2c0.5,0.2,0.9,0.6,1.2,1c0.3,0.4,0.5,0.8,0.6,1.2
	c0.4,1.5,1.8,2.4,3.3,2.1C204.8,33.3,205,33.3,205.2,33.3L205.2,33.3z"/>
<path class="st0" d="M240.5,108.9c-1.5-0.2-3.7-0.6-5.8-0.8c-2-0.2-4-0.2-6-0.3c-0.5,0-1-0.1-1.5-0.2c-0.2-0.1-0.4-0.3-0.5-0.5
	c0-0.1,0.2-0.4,0.4-0.5c0.4-0.2,0.7-0.3,1.1-0.5c0.2-0.2,0.4-0.5,0.5-0.8c-0.3-0.2-0.6-0.5-0.9-0.5c-1.2,0-2.4,0.1-3.7,0.1
	c-2-0.1-2.8-1.1-2.5-3.1c0.2-1.8,0.3-3.7,0.4-5.5c0-0.4-0.2-0.7-0.5-1c-0.4-0.3-0.5-0.8-0.3-1.2c0.1-0.5,0.2-1,0.2-1.5
	c0-0.2,0-0.4,0.1-0.6c0.7-2.2,0.8-4.5,0.1-6.7c-0.1-0.2-0.1-0.4-0.1-0.7c0.8-2.4,0.3-4.8,0.4-7.3c0-0.1,0-0.2-0.1-0.3
	c0,0.1-0.1,0.2-0.1,0.3c-0.1,1.3-0.2,2.6-0.4,3.9c-0.1,0.8-0.4,1.7-0.6,2.5c-0.1,0.2-0.4,0.2-0.6,0.4c-0.1-0.2-0.2-0.4-0.2-0.6
	c-0.6-2.1,0.1-4.1,0.4-6.1c0.2-1.2,0.8-2.4,1.1-3.6c0.1-0.6,0.1-1.2,0.1-1.8c0-0.4,0.1-0.8,0.2-1.2c0.1-0.2,0.3-0.4,0.3-0.6
	c0.1-1.3,0.1-2.6,0.1-3.9c0-0.4-0.4-0.8-0.5-1.2c-0.1-0.3-0.1-0.6,0-0.9c0.5-0.7,0.6-1.7,0.1-2.5c-0.5-1.1-1.2-2.1-2.1-3
	c-0.7-0.6-1.3-1.4-1.7-2.3c-0.2-0.5-0.2-0.7,0.3-1c1.3-0.7,2.1-1.9,2.3-3.3c0.6-3.7,1.4-7.3,2.2-10.9c0.4-1.8,0.9-3.5,1.3-5.3
	c0.1-0.7,0.2-1.4,0.1-2.1c-0.2-2,0.4-3.5,2.2-4.5c0.9-0.4,1.2-1.1,0.7-1.9c-0.7-1.2,0.1-2.2,0.1-3.3c-0.1-1-0.2-2-0.6-3
	c-0.4-0.7-0.6-1.5-0.6-2.2c0-0.9-0.1-1.8-0.4-2.6c-0.2-1.3,0.2-2.6,1.1-3.7c1.1-1.6,3-2.4,4.9-2.1c0.3,0,0.5,0,0.8,0
	c3,0,4.7,1.4,5.3,4.3c0,0.3,0,0.7,0,1c0,0.7,0.1,1.4,0.1,2.1c0,0.5-0.3,1.1-0.3,1.6c0,0.2,0.1,0.5,0.2,0.6c0.2,0.3,0.6,0.5,0.8,0.8
	c0.1,0.1,0.1,0.4,0.3,0.5c1.2,1.3,2.5,2.7,3.7,4c1.5,1.6,3.7,1.9,5.4,3.1c0.4,0.3,0.7,0.7,0.8,1.2c0.3,1.8,0.4,3.5,0.6,5.3
	c0.1,0.4,0.1,0.8,0,1.2c-0.3,1.9-0.2,3.9,0.3,5.8c0.2,1.1,0.2,2.3,0.2,3.5c0,0.9,0,1.8-0.1,2.7c-0.1,1-0.3,2.1-0.5,3.1
	c-0.3,1.5-0.6,2.9-0.8,4.4c0,0.2,0,0.4,0.1,0.5c0.4,0.7,0.4,1.6-0.1,2.2c-0.3,0.4,0,1.3,0.1,1.9c0.5,2.6,1.1,5.3,1.6,7.9
	c0.4,1.9,0.7,3.9,1,5.8c0.8,5.5,1.6,11,2.3,16.5c0.5,3.4,0.9,6.7,1.3,10.1c0.2,1.2,0,1.4-1.2,1.4c-0.4,0-0.8,0.1-1.2,0.3
	c-1.4,0.8-3,1.1-4.6,0.8c-0.3,0-0.5-0.1-0.8-0.1c-1.1,0-1.2,0.2-0.8,1.1c0.1,0.5,0.1,1,0.1,1.5c-0.1,0.5-0.2,1-0.2,1.4
	c0.1,0.7-0.1,1.2-0.8,1.3C243.8,108.5,242.4,108.7,240.5,108.9z"/>
<path class="st0" d="M6,185.8v-57.4c0-0.5,3.8-2.1,11.4-4.9c7.6-2.8,12-4.3,13.1-4.3s2.8,1.4,5.2,4.1c2.3,2.7,3.4,5.2,3.4,7.4v26.2
	H44v2.4l-4.9,2.5v19.4c0,3.7,1.6,5.8,4.8,6.5v2.2L33,196c-1.6-0.7-3-1.7-4.1-2.9c-1.1-1-1.8-2.4-1.9-3.9v-27.4h-9v18.8
	c-0.1,1.8,0.2,3.6,0.8,5.3c0.5,1.1,1.6,1.6,3.3,1.6v3.1l-20.5,8.6L0,196c1.5,0,2.9-0.9,4.2-2.6C5.4,191.7,6,189.2,6,185.8z
	 M21.9,128.5c-1.4,0-2.8,0.6-3.9,1.5v29.5l5.9-2.6H27v-21C27,131,25.3,128.5,21.9,128.5z"/>
<path class="st0" d="M61.1,125.9v55.3c0,4.1,1.4,6.4,4.1,6.9v2.2L55.1,196c-1.6-0.7-3-1.7-4.1-2.9c-1.1-1-1.8-2.4-1.9-3.9v-55.3
	c0-4.1-1.4-6.4-4.1-6.9v-2.2l10.1-5.7c1.6,0.7,3,1.7,4.1,2.9C60.3,123,61,124.4,61.1,125.9z"/>
<path class="st0" d="M103.9,128.7c-0.7,0-1.4,0.4-1.8,1v27.2h13.1v2.4l-5,2.5h-8.1v18.8c-0.1,1.8,0.2,3.6,0.8,5.3
	c0.5,1.1,1.6,1.6,3.3,1.6v3.1l-20.5,8.6l-1.6-3.2c1.5,0,2.9-0.9,4.2-2.6c1.2-1.7,1.8-4.2,1.8-7.6v-57.6c0-0.5,3.8-2.1,11.4-4.9
	c7.6-2.8,12-4.3,13.1-4.3c0.4,0,0.9,1,1.4,2.9c0.5,1.9,1.1,4.3,1.9,7c0.5,2.1,1.2,4.1,2.2,6.1c0.8,1.3,2.2,1.9,4.4,1.9v2
	c-1.5,0.7-4,1.9-7.4,3.6c-1.8,1-3.7,1.8-5.6,2.6c-1,0-2.3-2.7-3.8-8.1C106.1,131.4,104.8,128.7,103.9,128.7z"/>
<path class="st0" d="M125.2,181.4v-33.2c0-0.5,3.8-2.1,11.4-4.9c7.6-2.8,12-4.3,13.1-4.3c1.1,0,2.9,1.4,5.1,4.1
	c2.3,2.7,3.4,5.2,3.4,7.4v36.2c0,0.5-3.6,2.2-10.9,5.1c-7.3,2.8-11.8,4.3-13.4,4.3c-1.6,0-3.5-1.4-5.6-4.3
	C126.2,188.7,125.1,185.1,125.2,181.4z M142.3,186.8c1.4-0.1,2.8-0.6,3.9-1.6v-29.5c0-4.9-1.7-7.4-5.1-7.4c-1.4,0-2.8,0.6-3.9,1.5
	v29.6C137.2,184.3,138.9,186.8,142.3,186.8L142.3,186.8z"/>
<path class="st0" d="M163.4,145l11-6c0.5,0.1,1,0.3,1.6,0.6c1,0.5,1.9,1.1,2.6,1.9c1,0.9,1.6,2.2,1.6,3.6c0.3-0.1,1.9-1.2,4.8-3.1
	c2.8-2,4.7-2.9,5.4-2.9c2.1,0,4.1,1.4,6,4.2c1.7,2.2,2.6,4.9,2.8,7.7v4.9l-10.3,5.8l-1.7-1.4c0-5.6-0.5-8.8-1.6-9.6
	c-1.6-1-3.5-1.4-5.4-1.3v31.9c0,4.1,1.4,6.4,4.1,6.9v2.2l-10.1,5.7c-1.6-0.7-3-1.7-4.1-2.9c-1.1-1-1.8-2.4-1.9-3.9V156
	c0-2.9-0.5-5.1-1.6-6.6c-1-1.5-2.2-2.2-3.4-2.2L163.4,145z"/>
<path class="st0" d="M218.3,128.6v11.9h5.1l-1,4.9h-4.1v35.8c0,4.1,1.4,6.4,4.1,6.9v2.2l-10.1,5.7c-1.6-0.7-3-1.7-4.1-2.9
	c-1.1-1-1.8-2.4-1.9-3.9v-43.7h-4.1l1-4.2c2,0,4.4-1.4,7.3-4.1c2.6-2.3,4.4-5.3,5-8.6H218.3z"/>
<path class="st0" d="M240.3,145.8v35.4c0,4.1,1.4,6.4,4.1,6.9v2.2l-10.1,5.7c-1.6-0.7-3-1.7-4.1-2.9c-1.1-1-1.8-2.4-1.9-3.9v-35.4
	c0-4.1-1.4-6.4-4.1-6.9v-2.2l10.1-5.7c1.6,0.7,3,1.7,4.1,2.9C239.5,142.9,240.2,144.3,240.3,145.8z M226.8,126.5v-6.1
	c0-0.2,1.4-0.8,4.1-1.9c1.5-0.7,3.2-1.2,4.8-1.6c0.4,0,1.1,0.6,1.9,1.7c0.8,1,1.2,2.2,1.3,3.5v7.3c0,0.2-1.3,0.8-4,1.9
	c-1.6,0.7-3.2,1.2-4.9,1.6c-0.6,0-1.3-0.6-2-1.8C227.1,129.7,226.7,128.1,226.8,126.5z"/>
<path class="st0" d="M250.3,189.2v-33.9c0.1-2-0.4-4-1.4-5.7c-0.9-1.6-2.1-2.4-3.5-2.4V145c0.5-0.1,4.1-2.1,10.9-6.1
	c0.5,0.1,1,0.3,1.7,0.6c1,0.5,1.9,1.1,2.6,1.9c1,0.9,1.6,2.3,1.6,3.7c0.4-0.2,1.5-0.8,3.4-1.9c4.9-2.8,7.9-4.2,8.8-4.2
	c2.1,0,4.1,1.4,6,4.2c1.7,2.2,2.6,4.9,2.8,7.7v30.3c0,3.7,1.6,5.8,4.9,6.5v2.2l-10.9,6.1c-1.6-0.7-3-1.7-4.1-2.9
	c-1.1-1-1.8-2.4-1.9-3.9v-29c0.1-2.9-0.3-5.8-1.3-8.6c-0.7-1.9-2.5-3.1-4.5-2.9l-3.3,0.6v31.9c0,4.1,1.4,6.4,4.1,6.9v2.2l-10.1,5.7
	c-1.6-0.7-3-1.7-4.1-2.9C251.1,192.1,250.4,190.7,250.3,189.2z"/>
<path class="st0" d="M293.3,181.4v-33.2c0-0.5,3.8-2.1,11.4-4.9c7.6-2.8,12-4.3,13.1-4.3c1.1,0,2.8,1.4,5.1,4.1
	c2.3,2.7,3.4,5.2,3.5,7.4v36.2c0,0.5-3.6,2.2-11,5.1c-7.3,2.8-11.8,4.3-13.4,4.3c-1.6,0-3.5-1.4-5.6-4.3
	C294.3,188.7,293.2,185.1,293.3,181.4z M310.4,186.8c1.4-0.1,2.8-0.6,3.9-1.6v-29.5c0-4.9-1.7-7.4-5.1-7.4c-1.4,0-2.8,0.6-3.9,1.5
	v29.6C305.3,184.3,307,186.8,310.4,186.8L310.4,186.8z"/>
<path class="st0" d="M78,206.1v3.3h1.4l-0.3,1.4H78v10c0,1.1,0.4,1.8,1.1,1.9v0.6l-2.8,1.6c-0.4-0.2-0.8-0.5-1.1-0.8
	c-0.3-0.3-0.5-0.7-0.5-1.1v-12.2h-1.1l0.3-1.2c0.8-0.1,1.5-0.5,2-1.1c0.7-0.6,1.2-1.5,1.4-2.4L78,206.1z"/>
<path class="st0" d="M79.4,210.7l3.1-1.7c0.1,0,0.3,0.1,0.5,0.2c0.3,0.1,0.5,0.3,0.7,0.5c0.3,0.3,0.5,0.6,0.5,1
	c0.1,0,0.5-0.3,1.3-0.9c0.4-0.4,1-0.7,1.5-0.8c0.7,0.1,1.4,0.5,1.7,1.2c0.5,0.6,0.7,1.4,0.8,2.2v1.4l-2.9,1.6l-0.5-0.4
	c0-1.6-0.1-2.5-0.4-2.7c-0.5-0.3-1-0.4-1.5-0.4v8.9c0,1.1,0.4,1.8,1.1,1.9v0.6l-2.8,1.6c-0.4-0.2-0.8-0.5-1.1-0.8
	c-0.3-0.3-0.5-0.7-0.5-1.1v-9.3c0-0.6-0.1-1.3-0.4-1.8c-0.2-0.3-0.5-0.6-0.9-0.6L79.4,210.7z"/>
<path class="st0" d="M98.4,212.7v7.9c0,0.5,0.1,1,0.3,1.4c0.3,0.3,0.6,0.5,1,0.6v0.6l-3.1,1.7c-0.4-0.2-0.8-0.5-1.1-0.8
	c-0.3-0.3-0.5-0.6-0.5-1l-3.5,1.9c-0.1,0-0.1-0.1-0.3-0.2c-0.2-0.1-0.4-0.3-0.6-0.4c-0.3-0.2-0.5-0.4-0.7-0.7
	c-0.5-0.6-0.8-1.3-0.8-2.1V217c0-0.3,0.5-0.7,1.5-1.1c0.9-0.5,1.9-0.8,2.9-1.1l1.5-0.5c0.1-0.8-0.2-1.7-0.8-2.2
	c-1-0.5-2.1-0.7-3.2-0.6v-0.8c1.6-0.6,3.2-1.1,4.9-1.5c0.8,0.1,1.4,0.5,1.8,1.2C98.1,211,98.4,211.8,98.4,212.7z M93,221.8
	c0.2,0.3,0.6,0.5,1,0.5c0.4,0,0.8-0.2,1.1-0.4v-6.3c-0.5,0.2-0.8,0.3-1.1,0.4c-1.1,0.5-1.7,1.7-1.5,2.9v1.8
	C92.6,221.1,92.7,221.5,93,221.8L93,221.8z"/>
<path class="st0" d="M104.6,206.1v3.3h1.4l-0.3,1.4h-1.1v10c0,1.1,0.4,1.8,1.1,1.9v0.6l-2.8,1.6c-0.4-0.2-0.8-0.5-1.1-0.8
	c-0.3-0.3-0.5-0.7-0.5-1.1v-12.2h-1.1l0.3-1.2c0.8-0.1,1.5-0.5,2-1.1c0.7-0.6,1.2-1.5,1.4-2.4L104.6,206.1z"/>
<path class="st0" d="M110.8,206.1v3.3h1.4l-0.3,1.4h-1.1v10c0,1.1,0.4,1.8,1.1,1.9v0.6l-2.8,1.6c-0.4-0.2-0.8-0.5-1.1-0.8
	c-0.3-0.3-0.5-0.7-0.5-1.1v-12.2h-1.1l0.3-1.2c0.8-0.1,1.5-0.5,2-1.1c0.7-0.6,1.2-1.5,1.4-2.4L110.8,206.1z"/>
<path class="st0" d="M113.6,220.9v-9.3c1-0.6,2.1-1.1,3.2-1.4c1.2-0.5,2.4-0.9,3.7-1.2c0.3,0,0.8,0.4,1.4,1.1c0.6,0.6,0.9,1.3,1,2.1
	v10.1c0,0.1-1,0.6-3.1,1.4c-1.2,0.5-2.5,0.9-3.8,1.2c-0.5,0-1-0.4-1.6-1.2C113.8,223,113.5,221.9,113.6,220.9z M118.4,222.4
	c0.4,0,0.8-0.2,1.1-0.4v-8.3c0-1.4-0.5-2.1-1.4-2.1c-0.4,0-0.8,0.2-1.1,0.4v8.3C116.9,221.7,117.4,222.4,118.4,222.4z"/>
<path class="st0" d="M124.3,210.7l3.1-1.7c0.1,0,0.3,0.1,0.5,0.2c0.3,0.1,0.5,0.3,0.7,0.5c0.3,0.3,0.5,0.6,0.5,1
	c0.1,0,0.5-0.3,1.3-0.9c0.4-0.4,1-0.7,1.5-0.8c0.7,0.1,1.4,0.5,1.7,1.2c0.5,0.6,0.7,1.4,0.8,2.2v1.4l-2.9,1.6L131,215
	c0-1.6-0.1-2.5-0.4-2.7c-0.5-0.3-1-0.4-1.5-0.4v8.9c0,1.1,0.4,1.8,1.1,1.9v0.6l-2.8,1.6c-0.4-0.2-0.8-0.5-1.1-0.8
	c-0.3-0.3-0.5-0.7-0.5-1.1v-9.3c0-0.6-0.1-1.3-0.4-1.8c-0.2-0.3-0.5-0.6-0.9-0.6V210.7z"/>
<path class="st0" d="M139.6,210.9v9.9c0,1.1,0.4,1.8,1.1,1.9v0.6L138,225c-0.4-0.2-0.8-0.5-1.1-0.8c-0.3-0.3-0.5-0.7-0.5-1.1v-9.9
	c0-1.1-0.4-1.8-1.1-1.9v-0.6l2.8-1.6c0.4,0.2,0.8,0.5,1.1,0.8C139.4,210.1,139.6,210.5,139.6,210.9z M135.9,205.5v-1.7
	c0.4-0.2,0.8-0.4,1.2-0.5c0.4-0.2,0.9-0.3,1.3-0.4c0.1,0,0.3,0.2,0.5,0.5c0.2,0.3,0.3,0.6,0.4,1v2c-0.3,0.2-0.7,0.4-1.1,0.5
	c-0.4,0.2-0.9,0.3-1.4,0.4c-0.2,0-0.4-0.2-0.6-0.5C135.9,206.4,135.8,206,135.9,205.5L135.9,205.5z"/>
<path class="st0" d="M151.1,212.7v7.9c0,0.5,0.1,1,0.3,1.4c0.3,0.3,0.6,0.5,1,0.6v0.6l-3.1,1.7c-0.4-0.2-0.8-0.5-1.1-0.8
	c-0.3-0.3-0.5-0.6-0.5-1l-3.5,1.9c-0.1,0-0.1-0.1-0.3-0.2c-0.2-0.1-0.4-0.3-0.6-0.4c-0.3-0.2-0.5-0.4-0.7-0.7
	c-0.5-0.6-0.8-1.3-0.8-2.1V217c0-0.3,0.5-0.7,1.5-1.1c0.9-0.5,1.9-0.8,2.9-1.1l1.5-0.5c0.1-0.8-0.2-1.7-0.8-2.2
	c-1-0.5-2.1-0.7-3.2-0.6v-0.8c1.6-0.6,3.2-1.1,4.9-1.5c0.8,0.1,1.4,0.5,1.8,1.2C150.8,211,151.1,211.8,151.1,212.7z M145.7,221.8
	c0.2,0.3,0.6,0.5,1,0.5c0.4,0,0.8-0.2,1.1-0.4v-6.3c-0.5,0.2-0.8,0.3-1.1,0.4c-1.1,0.5-1.7,1.7-1.5,2.9v1.8
	C145.2,221.1,145.4,221.5,145.7,221.8L145.7,221.8z"/>
<path class="st0" d="M167.7,215.5v0.7l-1.7,1.5h-7.3v-0.6l1.7-1.6L167.7,215.5z"/>
<path class="st0" d="M175.2,228.1v-14.7c0-0.4-0.1-0.9-0.4-1.3c-0.2-0.4-0.6-0.6-1-0.7v-0.6c1-0.5,2.1-1.1,3.1-1.7
	c0.4,0.2,0.8,0.5,1.2,0.8c0.3,0.3,0.5,0.6,0.5,1c1.1-0.8,2.3-1.4,3.5-1.8c0.3,0.1,0.5,0.2,0.7,0.4c0.4,0.4,0.8,0.8,1.1,1.3
	c0.3,0.5,0.5,1.1,0.5,1.7v10c-0.8,0.5-1.6,0.9-2.5,1.2c-1.7,0.6-2.8,1.1-3.4,1.2v1c0,1.1,0.4,1.8,1.1,1.9v0.6l-2.8,1.6
	c-0.4-0.2-0.8-0.5-1.1-0.8C175.4,228.9,175.3,228.5,175.2,228.1z M179.7,211.6c-0.4,0-0.8,0.2-1.1,0.4v11.1c0.6,0,1.1-0.2,1.6-0.5
	c0.6-0.3,0.9-0.7,0.9-1v-8C181.1,212.3,180.7,211.6,179.7,211.6L179.7,211.6z"/>
<path class="st0" d="M190.6,210.9v9.9c0,1.1,0.4,1.8,1.1,1.9v0.6l-2.8,1.6c-0.4-0.2-0.8-0.5-1.1-0.8c-0.3-0.3-0.5-0.7-0.5-1.1v-9.9
	c0-1.1-0.4-1.8-1.1-1.9v-0.6l2.8-1.6c0.4,0.2,0.8,0.5,1.1,0.8C190.4,210.1,190.6,210.5,190.6,210.9z M186.8,205.5v-1.7
	c0.4-0.2,0.8-0.4,1.2-0.5c0.4-0.2,0.9-0.3,1.3-0.4c0.1,0,0.3,0.2,0.5,0.5c0.2,0.3,0.3,0.6,0.4,1v2c-0.3,0.2-0.7,0.4-1.1,0.5
	c-0.4,0.2-0.9,0.3-1.4,0.4c-0.2,0-0.4-0.2-0.6-0.5C186.9,206.4,186.8,206,186.8,205.5L186.8,205.5z"/>
<path class="st0" d="M198,222.3c1.1,0,1.8-0.3,1.9-0.9h0.6l1.6,2.3c-0.2,0.4-0.5,0.7-0.9,1c-0.3,0.3-0.7,0.4-1,0.4h-7.3
	c-0.3-0.9-0.5-1.8-0.6-2.7l6.6-10.3h-2.4c-1.1,0-1.8,0.3-1.9,0.9h-0.6l-1.6-2.3c0.2-0.4,0.5-0.7,0.9-1c0.3-0.3,0.7-0.4,1-0.4h3.8
	c1.1,0,1.8-0.3,1.9-0.9h0.6c0.4,0.6,0.7,1.3,1,1.9c0.3,0.5,0.5,1.1,0.6,1.7l-6.4,10.2L198,222.3z"/>
<path class="st0" d="M208.3,222.3c1.1,0,1.8-0.3,1.9-0.9h0.6l1.6,2.3c-0.2,0.4-0.5,0.7-0.9,1c-0.3,0.3-0.7,0.4-1,0.4h-7.3
	c-0.3-0.9-0.5-1.8-0.6-2.7l6.6-10.3h-2.4c-1.1,0-1.8,0.3-1.9,0.9h-0.6l-1.6-2.3c0.2-0.4,0.5-0.7,0.9-1c0.3-0.3,0.7-0.4,1-0.4h3.8
	c1.1,0,1.8-0.3,1.9-0.9h0.6c0.4,0.6,0.7,1.3,1,1.9c0.3,0.5,0.5,1.1,0.6,1.7l-6.4,10.2L208.3,222.3z"/>
<path class="st0" d="M221,209c0.3,0.1,0.5,0.2,0.7,0.4c0.4,0.3,0.8,0.8,1.1,1.2c0.3,0.4,0.5,1,0.6,1.5v4.7c0,0.3-0.5,0.7-1.5,1.2
	c-0.9,0.5-1.9,0.9-2.9,1.2c-0.5,0.2-1,0.3-1.5,0.5c-0.1,1.2,0.7,2.4,1.9,2.7c0.7,0.2,1.5,0.2,2.2,0.2v0.8c-3.1,1-4.7,1.5-4.9,1.5
	c-0.6,0-1.1-0.4-1.7-1.2c-0.6-0.8-0.9-1.8-0.9-2.8v-9.4c1-0.6,2.1-1.1,3.2-1.4C218.5,209.7,219.7,209.3,221,209z M219.7,212.2
	c-0.2-0.3-0.5-0.5-0.9-0.5c-0.4,0-0.9,0.2-1.2,0.4v6.5c1.5-0.2,2.6-1.5,2.5-3v-2C220,213,219.9,212.6,219.7,212.2L219.7,212.2z"/>
<path class="st0" d="M224.7,210.7l3.1-1.7c0.1,0,0.3,0.1,0.5,0.2c0.3,0.1,0.5,0.3,0.7,0.5c0.3,0.3,0.5,0.6,0.5,1
	c0.1,0,0.5-0.3,1.3-0.9c0.4-0.4,1-0.7,1.5-0.8c0.7,0.1,1.4,0.5,1.7,1.2c0.5,0.6,0.7,1.4,0.8,2.2v1.4l-2.9,1.6l-0.5-0.4
	c0-1.6-0.1-2.5-0.4-2.7c-0.5-0.3-1-0.4-1.5-0.4v8.9c0,1.1,0.4,1.8,1.1,1.9v0.6l-2.8,1.6c-0.4-0.2-0.8-0.5-1.1-0.8
	c-0.3-0.3-0.5-0.7-0.5-1.1v-9.3c0-0.6-0.1-1.3-0.4-1.8c-0.2-0.3-0.5-0.6-0.9-0.6L224.7,210.7z"/>
<path class="st0" d="M240,210.9v9.9c0,1.1,0.4,1.8,1.1,1.9v0.6l-2.8,1.6c-0.4-0.2-0.8-0.5-1.1-0.8c-0.3-0.3-0.5-0.7-0.5-1.1v-9.9
	c0-1.1-0.4-1.8-1.1-1.9v-0.6l2.8-1.6c0.4,0.2,0.8,0.5,1.1,0.8C239.8,210.1,240,210.5,240,210.9z M236.3,205.5v-1.7
	c0.4-0.2,0.8-0.4,1.2-0.5c0.4-0.2,0.9-0.3,1.3-0.4c0.1,0,0.3,0.2,0.5,0.5c0.2,0.3,0.3,0.6,0.4,1v2c-0.3,0.2-0.7,0.4-1.1,0.5
	c-0.4,0.2-0.9,0.3-1.4,0.4c-0.2,0-0.4-0.2-0.6-0.5C236.3,206.4,236.2,206,236.3,205.5L236.3,205.5z"/>
<path class="st0" d="M251.5,212.7v7.9c0,0.5,0.1,1,0.3,1.4c0.3,0.3,0.6,0.5,1,0.6v0.6l-3.1,1.7c-0.4-0.2-0.8-0.5-1.1-0.8
	c-0.3-0.3-0.5-0.6-0.5-1l-3.5,1.9c-0.1,0-0.1-0.1-0.3-0.2c-0.2-0.1-0.4-0.3-0.6-0.4c-0.3-0.2-0.5-0.4-0.7-0.7
	c-0.5-0.6-0.8-1.3-0.8-2.1V217c0-0.3,0.5-0.7,1.5-1.1c0.9-0.5,1.9-0.8,2.9-1.1l1.5-0.5c0.1-0.8-0.2-1.7-0.8-2.2
	c-1-0.5-2.1-0.7-3.2-0.6v-0.8c1.6-0.6,3.2-1.1,4.9-1.5c0.8,0.1,1.4,0.5,1.8,1.2C251.2,211,251.5,211.8,251.5,212.7z M246.1,221.8
	c0.2,0.3,0.6,0.5,1,0.5c0.4,0,0.8-0.2,1.1-0.4v-6.3c-0.5,0.2-0.8,0.3-1,0.4c-1.1,0.5-1.7,1.7-1.5,2.9v1.8
	C245.6,221.1,245.8,221.5,246.1,221.8L246.1,221.8z"/>
</svg>
