<svg xmlns="http://www.w3.org/2000/svg" viewBox="0 0 234.8955 229.9839"><title>logo_nobg_color</title><path d="M114.9,94.5032c.1689,2.5194.276,4.3092.4184,6.0962a7.435,7.435,0,0,0,.2857,1.2275c.3934,1.531.826,3.053,1.1712,4.5947a1.3663,1.3663,0,0,1-.8948,1.6344,5.9384,5.9384,0,0,1-4.9907-.0857,1.05,1.05,0,0,1-.5955-1.3348c.27-1.407.3864-2.8444.5482-4.2713.1344-1.1851.2926-2.3705.3524-3.56a10.4881,10.4881,0,0,0-.8884-5.603.8843.8843,0,0,0-.9435-.5824c-2.011.0255-1.9522.0117-2.0306,2.0162a11.9831,11.9831,0,0,0,1.9184,6.86,4.4379,4.4379,0,0,1,.4838,2.0941,23.3761,23.3761,0,0,1-.2087,2.9016.695.695,0,0,1-.1826.3715c-.7208-.1711-.8623.5035-1.2686.8016a2.9663,2.9663,0,0,1-1.4675.6021,32.5751,32.5751,0,0,1-3.3591-.0522c-.7556-.0318-1.0541-.4728-.7622-1.159a11.8355,11.8355,0,0,1,1.0578-1.9591,3.24,3.24,0,0,0,.6815-2.5145,3.6309,3.6309,0,0,0-.27-.6605c-.2959.2295-.7591.4039-.8561.6988a1.1863,1.1863,0,0,1-1.8078.7951c-.1615-.0877-.1522-.4537-.2752-.6593-.1176-.1966-.3644-.5279-.4527-.4982a3.5292,3.5292,0,0,1-3.23-.6921c-.5161-.3449-.5918-.123-.6283.3633-.0969,1.2906-.2025,2.5817-.3587,3.8661a1.649,1.649,0,0,1-2.3208.91.6234.6234,0,0,1-.1292-.4961c.1458-1.06.3293-2.115.4715-3.1754a2.5486,2.5486,0,0,0-.0978-.6886,2.3011,2.3011,0,0,0-.6437.23c-.97.73-4.3077.912-5.34.268a2.6178,2.6178,0,0,1-.8452-2.8079c.1657-.7019.4247-1.3857.5415-2.0942.1148-.6964.07-1.4175.1548-2.1207a22.319,22.319,0,0,0,.4048-2.8551c-.0237-1.9337-.151-3.87-.3336-5.7967a16.5,16.5,0,0,1,.5319-5.7675,1.3789,1.3789,0,0,0-.2121-.8932c-.3607-.6471-.847-1.23-1.16-1.8965-.269-.5736-.5847-.6136-1.0513-.34-1.5006.8815-3.0538,1.6882-4.481,2.6764a13.3874,13.3874,0,0,1-6.7809,2.27c-.9683.0746-1.94.1114-2.9055.2126-.1836.0192-.5131.3034-.49.393.7471,2.9421.3506,5.9045.1274,8.85-.1741,2.2991.56,4.4269.98,6.6169.3065,1.6015.7458,3.1835.95,4.7965a1.6635,1.6635,0,0,1-1.6659,2.05,6.2035,6.2035,0,0,1-2.4822-.2257c-1.2179-.3775-1.4567-1.2148-1.198-2.4783a17.8788,17.8788,0,0,0-.6559-10.0627c-.4708-1.2547-.8569-2.5411-1.2847-3.812a1.2941,1.2941,0,0,0-.1211-.2153,1.1848,1.1848,0,0,0-.0418.288c.1666,1.6347.3208,3.2709.5148,4.9023.2084,1.7526.4467,3.5019.69,5.25a.9276.9276,0,0,1-.8521,1.168c-3.1445.5454-6.2934,1.08-9.4892.4118-.4776-.1-.6607.026-.5711.511.1322.7153-.2423.9427-.8844.9311-.5728-.01-1.148-.0306-1.718.0107-.2182.0158-.5887.1728-.6016.2957-.0237.2267.116.6433.2734.69,1.8047.5325,3.123,2.2007,5.1673,2.1754a4.33,4.33,0,0,1,3.3549,1.2589c.4306.4482.433.9081-.0653,1.1793a4.7373,4.7373,0,0,1-1.8784.635c-1.3087.0818-2.6281-.008-3.943-.0253-.1429-.0019-.286.0078-.4291.0121.0573.1236.11.25.1728.37A1.9647,1.9647,0,0,1,54.7852,111.8a3.4775,3.4775,0,0,1-1.3121.2392c-2.9847-.1012-5.9681-.24-8.952-.3652-1.2978-.0544-2.5989-.0658-3.8926-.17-1.0956-.0881-1.5-.8869-1.139-1.9438a4.7828,4.7828,0,0,0,.1053-1.2548c.0106-.1929-.0671-.4156.0043-.5763.5616-1.2644,1.1065-2.54,1.7461-3.7647.367-.7029.2275-1.2388-.6577-1.4045-1.196-.2239-2.416-.3176-3.6234-.4838-1.0206-.14-1.091-.25-.74-1.2214.2048-.566-.1478-.5858-.5233-.59-1.0965-.0122-2.1949.0232-3.2892-.0291-1.2161-.0581-1.5511-.4342-1.124-1.55,1.0187-2.6615.7774-5.4439.9542-8.1853.3479-5.3927.6369-10.7892.9941-16.1812.2222-3.3538.4373-6.7124.8209-10.05.2749-2.3917.9157-4.74,1.2267-7.1291.3757-2.8863.6175-5.7925.8218-8.6968a8.7125,8.7125,0,0,0-.4117-2.2245c-.0136-.0666-.0757-.18-.1087-.1777-1.3458.0937-1.2178-1.3933-2.02-1.9048-.2515-.16-.3495-.6407-.4182-.9939a28.9757,28.9757,0,0,0-.6371-3.5045c-.6537-1.9937-1.4732-3.9344-2.2583-5.8831a47.8748,47.8748,0,0,1-1.88-4.6035,3.6043,3.6043,0,0,1,.4677-2.3883c1.0886-2.0378,2.3268-3.9958,3.5117-5.9819a6.6371,6.6371,0,0,1,.927-1.439,4.4242,4.4242,0,0,0,1.2012-3.0184c.1575-1.6658.69-2.1152,2.342-2.1342,1.5862-.0183,1.8083-.3278,1.6038-1.9471A7.06,7.06,0,0,1,38.7354,8.56c.1355-.3338-.2436-.962-.5231-1.359-.4375-.6214-.6953-1.1219.1953-1.5408a.4246.4246,0,0,0,.2071-.2686A8.9629,8.9629,0,0,1,40.681,1.486C41.4938.4235,42.5192.3866,43.455.0638,44.1-.1586,44.9768.2585,45.741.43c.3842.0861.7418.2846,1.1226.3927a4.9414,4.9414,0,0,1,3.56,5.88c-.07.3335-.16.5611.3352.68.2335.0559.5789.5732.5184.7752-.3505,1.1714-.4631,2.5107-1.9154,3.0359-.2405.087-.2587.6707-.4881.9281-.7593.8516-.3039,1.8342-.3014,2.7441.0011.3932.5127.7608.6764,1.1848a2.4283,2.4283,0,0,1,.2138,1.3191c-.1517.6441-.0377.863.632.8641a6.4451,6.4451,0,0,1,4.53,1.6228,2.7415,2.7415,0,0,0,.841.4609,1.3946,1.3946,0,0,1,1.001,1.7918.8573.8573,0,0,0,.6032,1.1638,2.2832,2.2832,0,0,1,.55.23c1.7608,1.34,3.4278.93,5.1049-.1978.9057-.6091,1.87-1.1339,2.8221-1.67.4349-.2449.93-.3877,1.3481-.6551.1562-.1.2985-.5076.2208-.6247a1.0764,1.0764,0,0,0-.6933-.4429c-2.1016-.2067-2.6983-1.1143-1.8906-3.055a5.6659,5.6659,0,0,0,.3489-3.4845c-.387-1.8433.92-2.9856,2.005-4.1765.3336-.3661.7765-.6366,1.0905-1.016,1.7062-2.0617,3.9336-2.1187,6.2547-1.5632a5.3965,5.3965,0,0,1,1.718,1.119A4.5443,4.5443,0,0,1,77.2657,8.912a5.5656,5.5656,0,0,1,.7657,2.2813,11.4047,11.4047,0,0,1-.2244,3.7033c-.3078,1.1085-.3424,2.2441-.6376,3.321a26.2372,26.2372,0,0,1-1.4678,3.6335c-.1874.4218-.2231.5694.2876.7972a16.0155,16.0155,0,0,1,2.7669,1.5658,5.3192,5.3192,0,0,1,2.1807,3.7709,1.6929,1.6929,0,0,0,.1553.3869c.1087-.0906.263-.1592.3187-.2753a18.1483,18.1483,0,0,0,1.01-2.2363,2.5908,2.5908,0,0,1,2.3937-2.0052c1.6-.1955,3.2384-.2681,4.6216-1.269.7686-.5561.7281-.876-.0961-1.3184a1.3324,1.3324,0,0,1-.47-.7368c-.1628-.4912-.2524-.9412-.9692-.8614-.4922.0548-.8141-.6306-.6317-1.1668.05-.1479.1172-.37.0482-.4661a1.6742,1.6742,0,0,1,.06-2.405,1.7008,1.7008,0,0,0,.5024-1.744,2.6535,2.6535,0,0,1,1.5281-3.2065c1.4157-.737,2.7693-1.5533,4.5068-.923a11.5789,11.5789,0,0,0,2.2188.1713,1.7517,1.7517,0,0,1,1.6056,1.3539,1.2508,1.2508,0,0,0,.3718.63c1.7065,1.4071,1.3294,3.2635,1.1048,5.0757-.2807,2.264-1.4873,4.1793-2.3737,6.2162a.7008.7008,0,0,0,.2243.6487c.5355.2514,1.1273.3788,1.6793.6,1.3826.5529,2.7848,1.0712,4.1147,1.733a2.2682,2.2682,0,0,1,1.0117,1.28c.3993,1.3553.6663,2.7515.943,4.14.0909.4562.1757.458.5314.1983.7016-.5123,1.44-.9754,2.1773-1.4366a1.589,1.589,0,0,1,.8105-.3439,8.1268,8.1268,0,0,1,4.6509,1.4326c1.3413,1.0333,1.241,2.3127.9943,3.7138a4.5589,4.5589,0,0,0,.023,1.2435c.0716.6827.2272,1.3588.2643,2.0421.0393.7223-.25,1.45.2541,2.1578.1338.1877-.13.6777-.2435,1.018a7.0012,7.0012,0,0,0-.4827,1.3984,1.0033,1.0033,0,0,0,.5348.7633c1.2524.5226,2.5387.9632,3.81,1.442a11.8306,11.8306,0,0,1,2.8244,1.158,3.7936,3.7936,0,0,1,1.08,2.0189,7.0778,7.0778,0,0,1,.137,2.2952,4.1831,4.1831,0,0,0,1.0019,3.1211,3.6805,3.6805,0,0,1,.7569,3.4268,9.8857,9.8857,0,0,0,.0253,4.0314,31.3051,31.3051,0,0,1,.1783,3.7819,11.036,11.036,0,0,0,.2519,1.5437,2.3593,2.3593,0,0,1-1.6687,2.9285,2.1068,2.1068,0,0,0-1.394,2.4424c.2019,1.4724-.0222,2.664-1.418,3.45a.8665.8665,0,0,0-.2533.6354,82.5585,82.5585,0,0,0,.839,14.9028c.6641,4.6777,1.4936,9.3318,2.2351,13.9987a.719.719,0,0,1-.1663.5734,1.473,1.473,0,0,1-2.3152-.8572c-.5432-4.3215-1.0613-8.6462-1.6173-12.966-.0289-.2248-.3234-.4153-.4943-.6218-.09.23-.2769.4694-.2562.6892.3284,3.4942.6441,6.9905,1.0605,10.4747.1007.8424-.3214.8566-.8586.9185-.5506.0635-1.0385.0832-1.1038-.7022-.3378-4.0663-.7018-8.13-1.0615-12.1948a3.8086,3.8086,0,0,0-.1193-.5221,1.8953,1.8953,0,0,0-.21.4558C115.3168,91.8761,115.0552,93.5348,114.9,94.5032ZM79.6936,48.4246l-.12.009c.048.9932.1082,1.9859.14,2.98a1.2,1.2,0,0,0,.8645,1.2456c.8246.2541,1.0555.8783,1.3132,1.6359a12.6425,12.6425,0,0,0,1.3267,2.3339c.0533.088.2072.115.3145.17a2.52,2.52,0,0,0,.0246-.3322,15.32,15.32,0,0,1,1.3328-8.1281,4.4662,4.4662,0,0,0,.48-1.554,1.0792,1.0792,0,0,0-.4141-.9026c-.7491-.3276-.6358-.7833-.4711-1.4a1.32,1.32,0,0,0-.186-1.0758c-.916-.96-1.9142-1.84-2.8824-2.75-.0833-.0782-.166-.1571-.249-.2356a2.7332,2.7332,0,0,0-.0842.3471A7.8326,7.8326,0,0,1,79.6177,44.7a1.3663,1.3663,0,0,0-.1791.8413C79.4971,46.5039,79.6047,47.4637,79.6936,48.4246Zm21.4,46.6733-.1279.0008c0-1.0174.0172-2.0353-.0139-3.0518a.8725.8725,0,0,0-.3108-.6076c-.1-.0719-.3761.0977-.5715.1632a4.2418,4.2418,0,0,1-.7994.2648c-.596.0712-1.5718.925-1.6,1.4764-.0613,1.2137-.0971,2.4037,1.17,3.1548.3176.1882.486.6181.745.9179a7.5606,7.5606,0,0,0,.9195.9653c.3315.2682.596.216.5911-.3046C101.0864,97.084,101.0931,96.0909,101.0931,95.0979Zm-8.8869.0915-.12.0256c.068.3894.1249.7811.21,1.1667a1.6206,1.6206,0,0,0,.1963.3781,1.3386,1.3386,0,0,0,.27-.34,7.2451,7.2451,0,0,0,.5693-1.8268c.1161-1.8521.1224-3.7112.16-5.5678a1.1739,1.1739,0,0,0-.1235-.5007,1.3927,1.3927,0,0,0-.2741-.3055,1.3108,1.3108,0,0,0-.2152.2793,9.7643,9.7643,0,0,0-1.0372,5.0391C91.9186,94.0943,92.0823,94.6391,92.2062,95.1893Zm16.2408-3.6925c.2866,0,.5109-.0061.7348.0013.4033.0133.5171-.1214.3777-.5347-.2619-.7762-.4446-1.5789-.7044-2.3559-.2423-.7246-.85-.4552-1.3278-.3818-.5478.0842-.413.466-.3084.8594a3.4868,3.4868,0,0,1,.1931,1.39C107.2505,91.4523,107.6683,91.67,108.447,91.4969Zm-7.0785-46.4436a3.2612,3.2612,0,0,0,.4343-.1087c.8843-.3742,1.7726-.7408,2.6378-1.1553a.6236.6236,0,0,0,.0246-.5732c-.62-.5991-1.2818-1.1546-1.9393-1.7134-.0139-.0118-.2072.1126-.2036.1659a3.3321,3.3321,0,0,1-1.0342,2.7692.7341.7341,0,0,0-.1293.4722C101.1574,44.965,101.3241,45.0247,101.3685,45.0532ZM102.9,97.654c.1086.8733-.2745,1.912.7926,2.5.1045.0576.2119.11.3179.1645.0343-.13.12-.2718.095-.39-.2341-1.1073-.4738-2.2138-.744-3.3126a3.8807,3.8807,0,0,0-.38-.77c-.0271.2751-.0664.55-.0781.8253C102.8891,96.9933,102.9,97.3158,102.9,97.654Z" fill="#78352c"/><path d="M162.0008,33.3335c.3735,0,.7471-.003,1.1206.0006.751.0073,1.3391.1733,1.2778,1.1332-.0138.2166.1958.4437.2894.6714q.66,1.6059,1.3119,3.2154a3.098,3.098,0,0,0,.1986.5517,21.6443,21.6443,0,0,1,3.14,9.1636c.2067,1.4841.5817,2.9541.662,4.4423a6.179,6.179,0,0,1-.6825,2.1562,9.3537,9.3537,0,0,0-.6867,1.8587,5.5786,5.5786,0,0,1-1.19,2.7656,5.9359,5.9359,0,0,0-.8538,1.5574,2.0981,2.0981,0,0,0,.454,2.1873,12.615,12.615,0,0,1,1.6634,2.9575,30.9267,30.9267,0,0,1,2.41,12.2189c-.0027,2.6129.2567,5.2256.2749,7.8393a11.0447,11.0447,0,0,1-2.1993,6.8415,3.6132,3.6132,0,0,0-.6872,2.6679,13.3143,13.3143,0,0,0,1.99,5.8878c1.2213,1.9111.8349,3.7022-.264,5.4559a1.8914,1.8914,0,0,1-.9573.6477,68.9,68.9,0,0,1-7.21,2.37,56.3114,56.3114,0,0,1-8.0354,1.0914,2.74,2.74,0,0,1-2.9154-2.5443c-.0863-.5386-.3223-.7285-.8327-.7131-2.8875.0874-5.7831.0623-8.66.282-2.1485.1641-4.2636.7411-6.4115.9472a37.5764,37.5764,0,0,1-5.5805.0882c-1.4122-.0756-1.9266-1.0266-1.8316-2.4342.2346-3.477.3475-6.9621.57-10.44q.4282-6.7037.9571-13.4008c.2-2.563.4366-5.1143-.3858-7.6245a3.5032,3.5032,0,0,1,.6732-3.0994c.5717-.8747,1.2171-1.7013,1.7908-2.5748.1718-.2616.3821-.71.2732-.8952a1.517,1.517,0,0,0-.9217-.6109,13.692,13.692,0,0,0-1.5628-.06c-.5653-.052-.7737-.3921-.4311-.87A25.2359,25.2359,0,0,0,132.85,55.731c.5045-3.4235,1.9983-6.4376,3.5068-9.4662a28.1422,28.1422,0,0,0,1.4142-2.8758c.3236-.8942.37-1.885.6289-2.8079a1.9515,1.9515,0,0,1,.6986-1.0458c1.01-.6653,2.089-1.2255,3.1265-1.8509.1-.06.1391-.292.1346-.4421-.0362-1.2187-.1182-2.4369-.1169-3.6551a1.1978,1.1978,0,0,1,.4146-.8585c.6042-.4314,1.3117-.7182,1.916-1.1494a1.1968,1.1968,0,0,0,.4875-.8782c-.0832-.8567-.305-1.7-.4745-2.5482a.2514.2514,0,0,0-.0547-.1359c-.9517-.8171-.7489-1.6808-.2667-2.6906a3.2589,3.2589,0,0,0,.0671-1.7705c-.6254-4.0845,3.4609-5.8805,6.3-5.21,2.41.5694,4.4742,1.6469,5.1236,4.3035a25.8894,25.8894,0,0,1,.6184,3.7517,2.8464,2.8464,0,0,1-.4659,1.4268c-.313.5918-.2937.9055.409,1.1837a3.19,3.19,0,0,1,1.1756,1,3.7944,3.7944,0,0,1,.5836,1.2036,2.852,2.852,0,0,0,3.327,2.0817c.1979-.0172.3986-.0023.5979-.0023Z" fill="#78352c"/><path d="M197.21,108.8771c-1.5485-.2208-3.6588-.5971-5.7856-.8034-2.0022-.1942-4.0221-.2038-6.0336-.3069a8.382,8.382,0,0,1-1.4706-.1694.7927.7927,0,0,1-.4746-.4832c-.0318-.105.2274-.35.4018-.4546a10.1083,10.1083,0,0,0,1.06-.5392,2.9757,2.9757,0,0,0,.5254-.7814c-.3106-.1924-.6188-.544-.9324-.5489-1.2169-.0192-2.4372.1378-3.6531.1069-1.9846-.05-2.7546-1.1128-2.52-3.0953.2161-1.8243.3177-3.6641.4032-5.5a1.462,1.462,0,0,0-.4667-1,.92.92,0,0,1-.2625-1.1748,6.5543,6.5543,0,0,0,.1924-1.481,2.8074,2.8074,0,0,1,.0533-.6487,10.9712,10.9712,0,0,0,.1425-6.6691,1.28,1.28,0,0,1-.0594-.652c.7637-2.39.306-4.8461.4147-7.27a.987.987,0,0,0-.0895-.3029,1.4493,1.4493,0,0,0-.0767.2686c-.1164,1.3073-.1781,2.622-.3593,3.92a14.5076,14.5076,0,0,1-.6421,2.457c-.0537.1649-.3948.2362-.6033.3506a5.8926,5.8926,0,0,1-.2468-.5769c-.65-2.0887.0562-4.0955.44-6.1037.2354-1.2309.7693-2.4019,1.0715-3.6239a11.3887,11.3887,0,0,0,.0688-1.7865,6.0086,6.0086,0,0,1,.2373-1.19c.0662-.2274.3161-.423.3274-.641.0672-1.2912.13-2.5857.1012-3.877-.0091-.4029-.3522-.7878-.4612-1.2024a1.3368,1.3368,0,0,1-.0005-.9284,2.1546,2.1546,0,0,0,.0554-2.4638,11.2232,11.2232,0,0,0-2.1072-3.0337,6.58,6.58,0,0,1-1.6561-2.3407c-.2453-.4611-.1542-.7.2752-.9621a4.5285,4.5285,0,0,0,2.3094-3.3321c.6063-3.6653,1.4007-7.301,2.1809-10.9354.3849-1.793.9456-3.5479,1.3477-5.3379a6.8134,6.8134,0,0,0,.0876-2.0784c-.1795-1.9729.3661-3.5388,2.2457-4.4629.86-.4231,1.188-1.0962.6547-1.9483-.7251-1.1586.1389-2.2161.095-3.3093a10.9517,10.9517,0,0,0-.5779-3,5.0612,5.0612,0,0,1-.5808-2.2443,10.4732,10.4732,0,0,0-.37-2.6117,4.6775,4.6775,0,0,1,1.0685-3.6521,4.89,4.89,0,0,1,4.8722-2.0607,7.85,7.85,0,0,0,.822.0039c2.958.0013,4.668,1.3823,5.2759,4.2937a6.7425,6.7425,0,0,1,0,1.0352c.0325.7021.1474,1.4066.11,2.1037-.03.5494-.2686,1.0846-.3491,1.6356a.9464.9464,0,0,0,.2084.6488c.2366.2931.5632.5119.8168.7936.127.1411.1382.3874.2666.526,1.2382,1.3363,2.4909,2.6592,3.7381,3.9871,1.4942,1.5907,3.7042,1.9254,5.4225,3.11a1.9884,1.9884,0,0,1,.7561,1.2128c.2588,1.7587.4126,3.5331.5935,5.3029a3.77,3.77,0,0,1,.04,1.2468,13.3569,13.3569,0,0,0,.28,5.8285,20.9234,20.9234,0,0,1,.1962,3.4659,20.1444,20.1444,0,0,1-.097,2.6738c-.12,1.04-.3439,2.0689-.5372,3.1-.2722,1.4516-.564,2.8995-.8289,4.3523a.8341.8341,0,0,0,.1084.5029,1.8582,1.8582,0,0,1-.0977,2.1859c-.2886.43-.0378,1.2787.084,1.9167.5024,2.6319,1.0684,5.2517,1.5721,7.8834.3718,1.9425.7284,3.89,1.0128,5.8469q1.1964,8.2326,2.3222,16.4754c.4605,3.3526.8616,6.7133,1.3134,10.0671.1561,1.1586-.0078,1.3507-1.1884,1.3606a2.3469,2.3469,0,0,0-1.1915.2971,6.5989,6.5989,0,0,1-4.6046.8046c-.2713-.0355-.5421-.086-.8146-.0983-1.08-.0489-1.1829.1742-.8041,1.1311a3.8262,3.8262,0,0,1,.0512,1.5491,7.3431,7.3431,0,0,0-.1752,1.4392c.1152.7389-.0514,1.1829-.8226,1.2753C200.5342,108.5159,199.1746,108.6587,197.21,108.8771Z" fill="#78352c"/><path d="M6.1,130.3q0-1.8984,10.2-6.55t12.4-4.65a1.5085,1.5085,0,0,1,1.3.75,12.8817,12.8817,0,0,1,.8,1.35l.9,1.9q.698,1.3008,1.4,2.5,1.2986,2.4,3.3,2.4v2q-1.6.7009-4.3,2.2-6.3,3.4006-6.8,3.4-1.5,0-2.75-4.4-1.2517-4.4-2.65-4.4-1.8,0-1.8,3v14.7H28.3v2.4l-5,2.5H18.1v31.8q0,6.1,4.1,6.9v2.2L12.1,196A11.6051,11.6051,0,0,1,8,193.05a5.8956,5.8956,0,0,1-1.9-3.85V149.4H0v-2.2l6.1-2.7Z" fill="#78352c"/><path d="M33.7,181.4V148.2q0-.6987,11.4-4.95Q56.5,139,58.2,139t5.15,4.1q3.45,4.1016,3.45,7.4v36.2q0,.8013-10.95,5.05Q44.9,196.0017,42.45,196q-2.4514,0-5.6-4.3A16.9487,16.9487,0,0,1,33.7,181.4Zm17.1,5.4a6.3031,6.3031,0,0,0,3.9-1.6V155.7q0-7.4-5.1-7.4a6.2381,6.2381,0,0,0-3.9,1.5v29.6Q45.7,186.8017,50.8,186.8Z" fill="#78352c"/><path d="M71.9,145l11-6q.698.2014,1.65.55a8.8662,8.8662,0,0,1,2.6,1.95,4.9074,4.9074,0,0,1,1.65,3.6q.5-.1992,4.75-3.15Q97.8,139.0014,99,139q3.1992,0,6,4.2a14.2115,14.2115,0,0,1,2.8,7.7v4.9l-10.3,5.8-1.7-1.4q0-8.4-1.6-9.6a9.2222,9.2222,0,0,0-5.4-1.3v31.9q0,6.1,4.1,6.9v2.2L82.8,196a11.6051,11.6051,0,0,1-4.1-2.95,5.8956,5.8956,0,0,1-1.9-3.85V156q0-4.3989-1.55-6.6-1.552-2.198-3.35-2.2Z" fill="#78352c"/><path d="M126.7993,128.6v11.9h5.1l-1,4.9h-4.1v35.8q0,6.1,4.1,6.9v2.2l-10.1,5.7a11.6051,11.6051,0,0,1-4.1-2.95,5.8956,5.8956,0,0,1-1.9-3.85V145.5h-4.1l1-4.2q3,0,7.25-4.05A15.7619,15.7619,0,0,0,124,128.6Z" fill="#78352c"/><path d="M148.7979,145.8v35.4q0,6.1,4.1,6.9v2.2l-10.1,5.7a11.6051,11.6051,0,0,1-4.1-2.95,5.8956,5.8956,0,0,1-1.9-3.85V153.8q0-6.0981-4.1-6.9v-2.2l10.1-5.7a11.6494,11.6494,0,0,1,4.1,2.95A5.9066,5.9066,0,0,1,148.7979,145.8Zm-13.5-19.3v-6.1q0-.3,4.15-1.85a27.3617,27.3617,0,0,1,4.8-1.55q.6489,0,1.9,1.7a5.8517,5.8517,0,0,1,1.25,3.5v7.3q0,.3-4,1.85a21.6779,21.6779,0,0,1-4.9,1.55q-.9,0-2.05-1.75A8.3431,8.3431,0,0,1,135.2979,126.5Z" fill="#78352c"/><path d="M158.7964,189.2V155.3a11.123,11.123,0,0,0-1.4-5.7q-1.4019-2.4-3.5-2.4V145q.698-.0981,10.9-6.1.6987.2014,1.7.55a8.52,8.52,0,0,1,2.65,1.95,5.0093,5.0093,0,0,1,1.65,3.7q.6-.3,3.4-1.9,7.4-4.2,8.8-4.2,3.1992,0,6,4.2a14.2115,14.2115,0,0,1,2.8,7.7v30.3q0,5.5,4.9,6.5v2.2l-10.9,6.1a11.6051,11.6051,0,0,1-4.1-2.95,5.8956,5.8956,0,0,1-1.9-3.85v-29a22.8048,22.8048,0,0,0-1.25-8.55,4.4755,4.4755,0,0,0-4.45-2.95l-3.3.6v31.9q0,6.1,4.1,6.9v2.2l-10.1,5.7a11.6051,11.6051,0,0,1-4.1-2.95A5.8956,5.8956,0,0,1,158.7964,189.2Z" fill="#78352c"/><path d="M201.7954,181.4V148.2q0-.6987,11.4-4.95,11.4-4.25,13.1-4.25t5.15,4.1q3.45,4.1016,3.45,7.4v36.2q0,.8013-10.95,5.05-10.95,4.2517-13.4,4.25-2.4514,0-5.6-4.3A16.9487,16.9487,0,0,1,201.7954,181.4Zm17.1,5.4a6.3031,6.3031,0,0,0,3.9-1.6V155.7q0-7.4-5.1-7.4a6.2381,6.2381,0,0,0-3.9,1.5v29.6Q213.7954,186.8017,218.8955,186.8Z" fill="#78352c"/><path d="M35.8735,206.1279v3.332h1.4282l-.28,1.3721H35.8735v10.0239q0,1.708,1.1484,1.9321v.6157L34.1938,225a3.243,3.243,0,0,1-1.1479-.8262,1.65,1.65,0,0,1-.5322-1.0776V210.86H31.3657l.28-1.1758a3.2964,3.2964,0,0,0,2.03-1.1343,4.4147,4.4147,0,0,0,1.4141-2.4219Z" fill="#78352c"/><path d="M37.3013,210.72l3.08-1.68q.1956.0564.4619.1538a2.4752,2.4752,0,0,1,.728.5464,1.3727,1.3727,0,0,1,.4619,1.0078q.14-.0557,1.33-.8818A4.2443,4.2443,0,0,1,44.89,209.04a2.1389,2.1389,0,0,1,1.68,1.1758,3.9792,3.9792,0,0,1,.7842,2.1563v1.3721l-2.8843,1.624-.4756-.3921q0-2.3518-.4482-2.688a2.58,2.58,0,0,0-1.5122-.3643v8.9321q0,1.708,1.1484,1.9321v.6157L40.3535,225a3.243,3.243,0,0,1-1.1479-.8262,1.65,1.65,0,0,1-.5322-1.0776V213.8a3.2137,3.2137,0,0,0-.4341-1.8477,1.1922,1.1922,0,0,0-.938-.6162Z" fill="#78352c"/><path d="M56.313,212.7358V220.66a2.3162,2.3162,0,0,0,.3359,1.4419,1.8562,1.8562,0,0,0,1.0361.5737v.6162L54.6328,225a3.2516,3.2516,0,0,1-1.1479-.8262,1.6314,1.6314,0,0,1-.5317-1.05l-3.5,1.876q-.0842-.0557-.2524-.1538a5.9876,5.9876,0,0,1-.5737-.42,4.9512,4.9512,0,0,1-.7139-.6855,3.0378,3.0378,0,0,1-.84-2.1v-4.5923q0-.4475,1.4561-1.1479a20.9863,20.9863,0,0,1,2.9121-1.1479l1.4839-.4761a2.6164,2.6164,0,0,0-.84-2.2261,5.8212,5.8212,0,0,0-3.248-.63v-.84a34.2489,34.2489,0,0,1,4.8721-1.54,2.2806,2.2806,0,0,1,1.7642,1.2041A4.3028,4.3028,0,0,1,56.313,212.7358Zm-5.4463,9.0859a1.3037,1.3037,0,0,0,.9663.4624,1.9487,1.9487,0,0,0,1.12-.42v-6.3276q-.7.252-1.05.42a2.67,2.67,0,0,0-1.47,2.856v1.82A1.6653,1.6653,0,0,0,50.8667,221.8218Z" fill="#78352c"/><path d="M62.4727,206.1279v3.332h1.4282l-.28,1.3721H62.4727v10.0239q0,1.708,1.1484,1.9321v.6157L60.793,225a3.243,3.243,0,0,1-1.1479-.8262,1.65,1.65,0,0,1-.5322-1.0776V210.86H57.9648l.28-1.1758a3.2964,3.2964,0,0,0,2.03-1.1343,4.4147,4.4147,0,0,0,1.4141-2.4219Z" fill="#78352c"/><path d="M68.6323,206.1279v3.332h1.4282l-.28,1.3721H68.6323v10.0239q0,1.708,1.1484,1.9321v.6157L66.9526,225a3.243,3.243,0,0,1-1.1479-.8262,1.65,1.65,0,0,1-.5322-1.0776V210.86H64.1245l.28-1.1758a3.2964,3.2964,0,0,0,2.03-1.1343,4.4147,4.4147,0,0,0,1.4141-2.4219Z" fill="#78352c"/><path d="M71.4321,220.9121v-9.2959A13.0835,13.0835,0,0,1,74.624,210.23a21.7,21.7,0,0,1,3.668-1.19q.4761,0,1.4424,1.1479A3.3879,3.3879,0,0,1,80.7,212.26V222.396q0,.2241-3.0659,1.4141a16.6546,16.6546,0,0,1-3.752,1.19q-.6863,0-1.5679-1.2041A4.7421,4.7421,0,0,1,71.4321,220.9121Zm4.7881,1.5117a1.7631,1.7631,0,0,0,1.0918-.4478v-8.26q0-2.0713-1.4277-2.0718a1.7491,1.7491,0,0,0-1.0923.42v8.2881Q74.792,222.424,76.22,222.4238Z" fill="#78352c"/><path d="M82.1279,210.72l3.08-1.68q.1956.0564.4619.1538a2.4752,2.4752,0,0,1,.728.5464,1.3727,1.3727,0,0,1,.4619,1.0078q.14-.0557,1.33-.8818a4.2443,4.2443,0,0,1,1.5264-.8262,2.1389,2.1389,0,0,1,1.68,1.1758,3.9792,3.9792,0,0,1,.7842,2.1563v1.3721l-2.8843,1.624-.4756-.3921q0-2.3518-.4482-2.688a2.58,2.58,0,0,0-1.5122-.3643v8.9321q0,1.708,1.1484,1.9321v.6157L85.18,225a3.243,3.243,0,0,1-1.1479-.8262,1.65,1.65,0,0,1-.5322-1.0776V213.8a3.2137,3.2137,0,0,0-.4341-1.8477,1.1922,1.1922,0,0,0-.938-.6162Z" fill="#78352c"/><path d="M97.5,210.9438v9.9121q0,1.708,1.1484,1.9321v.6157L95.82,225a3.243,3.243,0,0,1-1.1479-.8262,1.65,1.65,0,0,1-.5322-1.0776v-9.9121q0-1.708-1.1479-1.9321v-.6157L95.82,209.04a3.26,3.26,0,0,1,1.1479.8262A1.6523,1.6523,0,0,1,97.5,210.9438ZM93.72,205.54v-1.708a4.1222,4.1222,0,0,1,1.1621-.5181,7.6832,7.6832,0,0,1,1.3438-.4341c.1216,0,.2983.1587.5322.4761a1.6407,1.6407,0,0,1,.35.98V206.38a3.9107,3.9107,0,0,1-1.12.5181,6.0764,6.0764,0,0,1-1.3721.4341q-.252,0-.5742-.49A2.3389,2.3389,0,0,1,93.72,205.54Z" fill="#78352c"/><path d="M108.9795,212.7358V220.66a2.3162,2.3162,0,0,0,.3359,1.4419,1.8562,1.8562,0,0,0,1.0361.5737v.6162L107.2993,225a3.2516,3.2516,0,0,1-1.1479-.8262,1.6314,1.6314,0,0,1-.5317-1.05L102.12,225q-.0842-.0557-.2524-.1538a5.9876,5.9876,0,0,1-.5737-.42,4.9512,4.9512,0,0,1-.7139-.6855,3.0378,3.0378,0,0,1-.84-2.1v-4.5923q0-.4475,1.4561-1.1479a20.9863,20.9863,0,0,1,2.9121-1.1479l1.4839-.4761a2.6164,2.6164,0,0,0-.84-2.2261,5.8212,5.8212,0,0,0-3.248-.63v-.84a34.2489,34.2489,0,0,1,4.8721-1.54,2.2806,2.2806,0,0,1,1.7642,1.2041A4.3028,4.3028,0,0,1,108.9795,212.7358Zm-5.4463,9.0859a1.3037,1.3037,0,0,0,.9663.4624,1.9487,1.9487,0,0,0,1.12-.42v-6.3276q-.7.252-1.05.42a2.67,2.67,0,0,0-1.47,2.856v1.82A1.6653,1.6653,0,0,0,103.5332,221.8218Z" fill="#78352c"/><path d="M125.5269,215.48v.6719l-1.68,1.54h-7.3081v-.6157l1.68-1.5962Z" fill="#78352c"/><path d="M133.0859,228.08V213.352a2.5239,2.5239,0,0,0-.35-1.26,1.2987,1.2987,0,0,0-.9937-.7v-.6162a34.1581,34.1581,0,0,0,3.0518-1.708,3.5493,3.5493,0,0,1,1.1621.8262,1.5552,1.5552,0,0,1,.5181,1.022,14.2265,14.2265,0,0,1,3.5-1.8481,1.7285,1.7285,0,0,1,.7417.4341,5.4086,5.4086,0,0,1,1.0923,1.26,3.0386,3.0386,0,0,1,.5459,1.6938v9.9678a8.2917,8.2917,0,0,1-2.478,1.1621q-2.4778.9661-3.43,1.2183V225.84q0,1.708,1.1484,1.9321v.6162l-2.8281,1.5957a3.2474,3.2474,0,0,1-1.1479-.8257A1.6519,1.6519,0,0,1,133.0859,228.08Zm4.48-16.436a1.7649,1.7649,0,0,0-1.0918.4478V223.208a3.5184,3.5184,0,0,0,1.624-.4761q.8958-.4753.896-1.0078v-8.0083Q138.9941,211.6445,137.5659,211.644Z" fill="#78352c"/><path d="M148.4858,210.9438v9.9121q0,1.708,1.1484,1.9321v.6157L146.8062,225a3.243,3.243,0,0,1-1.1479-.8262,1.65,1.65,0,0,1-.5322-1.0776v-9.9121q0-1.708-1.1479-1.9321v-.6157l2.8281-1.5962a3.26,3.26,0,0,1,1.1479.8262A1.6523,1.6523,0,0,1,148.4858,210.9438Zm-3.78-5.4038v-1.708a4.1222,4.1222,0,0,1,1.1621-.5181,7.6832,7.6832,0,0,1,1.3438-.4341c.1216,0,.2983.1587.5322.4761a1.6407,1.6407,0,0,1,.35.98V206.38a3.9107,3.9107,0,0,1-1.12.5181,6.0764,6.0764,0,0,1-1.3721.4341q-.252,0-.5742-.49A2.3389,2.3389,0,0,1,144.7061,205.54Z" fill="#78352c"/><path d="M155.8218,222.2558q1.7073,0,1.9321-.9238h.6157l1.5962,2.2959a3.7994,3.7994,0,0,1-.8682.9521,1.6869,1.6869,0,0,1-1.0361.42h-7.3359a9.2283,9.2283,0,0,1-.56-2.66l6.58-10.3037H154.31q-1.708,0-1.9316.9238h-.6162l-1.5962-2.2959a3.7985,3.7985,0,0,1,.8682-.9521,1.688,1.688,0,0,1,1.0361-.42h3.752q1.7073,0,1.9321-.9238h.6157a10.7621,10.7621,0,0,1,.9941,1.9458,7.5871,7.5871,0,0,1,.6021,1.6938l-6.356,10.248Z" fill="#78352c"/><path d="M166.1816,222.2558q1.7073,0,1.9321-.9238h.6157l1.5962,2.2959a3.7994,3.7994,0,0,1-.8682.9521,1.6869,1.6869,0,0,1-1.0361.42h-7.3359a9.2283,9.2283,0,0,1-.56-2.66l6.58-10.3037h-2.436q-1.708,0-1.9316.9238h-.6162l-1.5962-2.2959a3.7985,3.7985,0,0,1,.8682-.9521,1.688,1.688,0,0,1,1.0361-.42h3.752q1.7073,0,1.9321-.9238h.6157a10.7621,10.7621,0,0,1,.9941,1.9458,7.5871,7.5871,0,0,1,.6021,1.6938l-6.356,10.248Z" fill="#78352c"/><path d="M178.8652,209.04a2.0315,2.0315,0,0,1,.7.4341,5.9281,5.9281,0,0,1,1.12,1.2041,2.5607,2.5607,0,0,1,.56,1.4976V216.88q0,.5039-1.4844,1.2319a23.0531,23.0531,0,0,1-2.87,1.19,15.27,15.27,0,0,1-1.498.4624,2.4388,2.4388,0,0,0,1.876,2.66,9.4653,9.4653,0,0,0,2.2119.2241v.812q-4.5923,1.54-4.9,1.54-.84,0-1.708-1.19a4.5987,4.5987,0,0,1-.8682-2.7861v-9.4077a13.0835,13.0835,0,0,1,3.1919-1.3862A21.7,21.7,0,0,1,178.8652,209.04Zm-1.3437,3.1221a1.0792,1.0792,0,0,0-.9238-.5459,2.3672,2.3672,0,0,0-1.2324.42v6.4678a2.9706,2.9706,0,0,0,2.52-3.0239v-1.9878A2.3473,2.3473,0,0,0,177.5215,212.1621Z" fill="#78352c"/><path d="M182.5327,210.72l3.08-1.68q.1956.0564.4619.1538a2.4752,2.4752,0,0,1,.728.5464,1.3727,1.3727,0,0,1,.4619,1.0078q.14-.0557,1.33-.8818a4.2443,4.2443,0,0,1,1.5264-.8262,2.1389,2.1389,0,0,1,1.68,1.1758,3.9792,3.9792,0,0,1,.7842,2.1563v1.3721l-2.8843,1.624-.4756-.3921q0-2.3518-.4482-2.688a2.58,2.58,0,0,0-1.5122-.3643v8.9321q0,1.708,1.1484,1.9321v.6157L185.585,225a3.243,3.243,0,0,1-1.1479-.8262,1.65,1.65,0,0,1-.5322-1.0776V213.8a3.2137,3.2137,0,0,0-.4341-1.8477,1.1922,1.1922,0,0,0-.938-.6162Z" fill="#78352c"/><path d="M197.9043,210.9438v9.9121q0,1.708,1.1484,1.9321v.6157L196.2246,225a3.243,3.243,0,0,1-1.1479-.8262,1.65,1.65,0,0,1-.5322-1.0776v-9.9121q0-1.708-1.1479-1.9321v-.6157l2.8281-1.5962a3.26,3.26,0,0,1,1.1479.8262A1.6523,1.6523,0,0,1,197.9043,210.9438Zm-3.78-5.4038v-1.708a4.1223,4.1223,0,0,1,1.1621-.5181,7.6832,7.6832,0,0,1,1.3438-.4341c.1216,0,.2983.1587.5322.4761a1.6407,1.6407,0,0,1,.35.98V206.38a3.9107,3.9107,0,0,1-1.12.5181,6.0764,6.0764,0,0,1-1.3721.4341q-.252,0-.5742-.49A2.3389,2.3389,0,0,1,194.1245,205.54Z" fill="#78352c"/><path d="M209.3843,212.7358V220.66a2.3162,2.3162,0,0,0,.3359,1.4419,1.8562,1.8562,0,0,0,1.0361.5737v.6162L207.7041,225a3.2516,3.2516,0,0,1-1.1479-.8262,1.6314,1.6314,0,0,1-.5317-1.05l-3.5,1.876q-.0842-.0557-.2524-.1538a5.9876,5.9876,0,0,1-.5737-.42,4.9512,4.9512,0,0,1-.7139-.6855,3.0378,3.0378,0,0,1-.84-2.1v-4.5923q0-.4475,1.4561-1.1479a20.9863,20.9863,0,0,1,2.9121-1.1479l1.4839-.4761a2.6164,2.6164,0,0,0-.84-2.2261,5.8212,5.8212,0,0,0-3.248-.63v-.84a34.2489,34.2489,0,0,1,4.8721-1.54,2.2806,2.2806,0,0,1,1.7642,1.2041A4.3028,4.3028,0,0,1,209.3843,212.7358Zm-5.4463,9.0859a1.3037,1.3037,0,0,0,.9663.4624,1.9487,1.9487,0,0,0,1.12-.42v-6.3276q-.7.252-1.05.42a2.67,2.67,0,0,0-1.47,2.856v1.82A1.6653,1.6653,0,0,0,203.938,221.8218Z" fill="#78352c"/></svg>